<svg width="182" height="143" viewBox="0 0 182 143" fill="none" xmlns="http://www.w3.org/2000/svg">
<path d="M181.943 70V0.5L121.943 0.5L121.943 79H133.943C133.277 86.6667 132.61 91.3333 131.943 93C131.943 93.3333 131.777 94.3333 131.443 96C131.11 97.3333 130.443 98.8333 129.443 100.5C128.443 102.167 126.943 103.667 124.943 105C123.277 106.333 120.777 107 117.443 107V143C133.443 142 145.277 139.667 152.943 136C160.61 132.333 166.777 126.833 171.443 119.5C175.11 112.833 177.777 105.333 179.443 97C181.11 88.6667 181.943 79.6667 181.943 70ZM64.9434 70L64.9434 0.5L4.94336 0.5L4.94336 79H16.9434C16.2767 86.6667 15.61 91.3333 14.9434 93C14.9434 93.3333 14.7767 94.3333 14.4434 96C14.11 97.3333 13.4434 98.8333 12.4434 100.5C11.4434 102.167 9.94336 103.667 7.94336 105C6.27669 106.333 3.77669 107 0.443359 107L0.443359 143C16.4434 142 28.2767 139.667 35.9434 136C43.61 132.333 49.7767 126.833 54.4434 119.5C58.11 112.833 60.7767 105.333 62.4434 97C64.11 88.6667 64.9434 79.6667 64.9434 70Z" fill="#FFCE07" fill-opacity="0.2"/>
</svg>
